<svg xmlns="http://www.w3.org/2000/svg" viewBox="0 0 103.68 108.62"><defs><style>.cls-1,.cls-3{fill:none;}.cls-1,.cls-2,.cls-3{stroke:#e10098;stroke-miterlimit:10;}.cls-1,.cls-2{stroke-width:4px;}.cls-2{fill:#fff;}.cls-3{stroke-width:3px;}.cls-4{fill:#e10098;}</style></defs><title>cuter-spaceman-1</title><g id="Layer_2" data-name="Layer 2"><g id="Layer_2-2" data-name="Layer 2"><rect class="cls-1" x="2" y="49.98" width="15.35" height="33.55" rx="3.9" ry="3.9"/><rect class="cls-1" x="86.33" y="49.95" width="15.35" height="33.55" rx="3.9" ry="3.9"/><path class="cls-1" d="M94,64.59c0,23.21.12,42-41.83,42s-41.83-18.82-41.83-42a41.83,41.83,0,1,1,83.66,0Z"/><path class="cls-2" d="M93.33,64.59c0,23.21.12,42-41.83,42S9.68,87.8,9.68,64.59a41.83,41.83,0,1,1,83.66,0Z"/><circle class="cls-1" cx="51.5" cy="7.23" r="5.23"/><line class="cls-1" x1="51.5" y1="11.44" x2="51.5" y2="23.44"/><path class="cls-1" d="M30.55,39.44"/><path class="cls-1" d="M30.55,29.44"/><rect class="cls-1" x="22.5" y="45.14" width="58" height="40.75" rx="12" ry="12"/><ellipse class="cls-3" cx="52.18" cy="65.62" rx="17.82" ry="3.78" transform="translate(-20.8 24.36) rotate(-22.03)"/><circle class="cls-4" cx="52.14" cy="65.52" r="11.75" transform="matrix(0.19, -0.98, 0.98, 0.19, -22.08, 104.29)"/></g></g></svg>